# File created by Blade
# Date/Time:  Wed Sep 24 19:42:34 2014
# Frame Rate: 120.000 fps
#------------------------------------------------------
:FULLY-SPECIFIED
:DEGREES
3294
root -4.429474 33.094271 -3.590269 9.477161 0.480825 -2.039052
Spine -11.631909 10.694207 -7.189868
Head 15.267674 -13.917926 8.769243
LeftShoulder -18.031165 24.827434 8.289568
LeftArm 22.367081 21.241356 -63.556667
LeftForeArm 4.988905 -0.000000 32.720462
LeftHand -25.812377 -0.000000 -5.044488
LeftHandThumb1 -26.253704 0.000000 33.147579
RightShoulder 328.195034 48.043974 278.334415
RightArm -8.240822 47.411130 20.063294
RightForeArm 46.231506 0.000000 100.678488
RightHand 4.928889 -0.000000 24.657953
RightHandThumb1 -24.326973 -0.000000 -32.862282
LeftUpLeg -3.782666 6.223016 5.057221
LeftLeg -2.129946 -0.000000 0.000000
LeftFoot -7.710680 5.197686 -19.376903
LeftToeBase 10.613912 -0.000000 -0.000000
RightUpLeg -6.359788 -7.290526 -0.041342
RightLeg 1.549243 -0.000000 -0.000000
RightFoot -5.156699 -3.401545 -15.082975
RightToeBase 0.326119 -0.000000 -0.000000
3295
root -4.431815 33.096929 -3.579716 9.492803 0.596024 -2.057513
Spine -11.596617 10.701701 -7.091949
Head 15.470495 -14.004477 8.588500
LeftShoulder -17.953488 24.901590 8.230840
LeftArm 22.331472 21.077372 -63.560292
LeftForeArm 4.992437 -0.000000 32.796273
LeftHand -25.735012 0.000000 -4.895753
LeftHandThumb1 -26.253704 0.000000 33.147579
RightShoulder 326.203324 49.867582 275.094505
RightArm -10.381672 47.094814 19.198379
RightForeArm 49.576998 -0.000000 101.758115
RightHand 5.734894 -0.000000 22.987371
RightHandThumb1 -24.326973 -0.000000 -32.862282
LeftUpLeg -3.770072 6.222259 5.088704
LeftLeg -2.201440 -0.000000 0.000000
LeftFoot -7.620139 5.114243 -19.381695
LeftToeBase 10.546191 -0.000000 -0.000000
RightUpLeg -6.319764 -7.368999 -0.004242
RightLeg 1.491859 -0.000000 -0.000000
RightFoot -5.099812 -3.415688 -15.025199
RightToeBase 0.283717 -0.000000 -0.000000
3296
root -4.433084 33.099443 -3.570760 9.516718 0.712084 -2.063191
Spine -11.565348 10.660218 -7.029395
Head 15.644711 -14.037264 8.491601
LeftShoulder -17.926344 24.919381 8.200668
LeftArm 22.275320 20.971512 -63.590862
LeftForeArm 5.005698 -0.000000 32.823525
LeftHand -25.674377 -0.000000 -4.896301
LeftHandThumb1 -26.253704 0.000000 33.147579
RightShoulder 324.141839 51.463514 271.947085
RightArm -12.268373 46.854204 18.441088
RightForeArm 52.970374 -0.000000 102.826454
RightHand 6.413409 0.000000 21.271923
RightHandThumb1 -24.326973 -0.000000 -32.862282
LeftUpLeg -3.772152 6.178217 5.109576
LeftLeg -2.259883 -0.000000 0.000000
LeftFoot -7.541092 5.049069 -19.382772
LeftToeBase 10.594351 -0.000000 -0.000000
RightUpLeg -6.280650 -7.430956 0.014326
RightLeg 1.416401 -0.000000 -0.000000
RightFoot -5.043539 -3.420504 -14.976369
RightToeBase 0.214296 -0.000000 -0.000000
3297
root -4.432391 33.102283 -3.563998 9.547030 0.813151 -2.059727
Spine -11.547972 10.587233 -6.977937
Head 15.803208 -14.103014 8.361272
LeftShoulder -17.927981 24.912474 8.153607
LeftArm 22.189846 20.880794 -63.622420
LeftForeArm 5.007412 0.000000 32.843201
LeftHand -25.746314 -0.000000 -4.858083
LeftHandThumb1 -26.253704 0.000000 33.147579
RightShoulder 322.034319 52.893724 268.831177
RightArm -14.003741 46.597979 17.720739
RightForeArm 56.285946 -0.000000 103.826029
RightHand 6.974415 -0.000000 20.409379
RightHandThumb1 -24.326973 -0.000000 -32.862282
LeftUpLeg -3.783846 6.128808 5.113111
LeftLeg -2.315369 -0.000000 0.000000
LeftFoot -7.476924 5.026138 -19.361950
LeftToeBase 10.591045 -0.000000 -0.000000
RightUpLeg -6.284172 -7.518809 0.028347
RightLeg 1.404877 -0.000000 -0.000000
RightFoot -5.026104 -3.435038 -14.951168
RightToeBase 0.280726 -0.000000 -0.000000
3298
root -4.434584 33.104290 -3.554223 9.575701 0.894590 -2.067203
Spine -11.559004 10.547622 -6.936569
Head 15.966080 -14.154677 8.237253
LeftShoulder -17.898750 24.922763 8.127971
LeftArm 22.117591 20.820043 -63.632292
LeftForeArm 4.942316 -0.000000 32.834897
LeftHand -25.812260 -0.000000 -4.913285
LeftHandThumb1 -26.253704 0.000000 33.147579
RightShoulder 319.916570 54.111755 265.808632
RightArm -15.536738 46.325985 17.087171
RightForeArm 59.455073 -0.000000 104.749229
RightHand 7.578101 0.000000 20.028457
RightHandThumb1 -24.326973 -0.000000 -32.862282
LeftUpLeg -3.784869 6.118542 5.130692
LeftLeg -2.370601 -0.000000 0.000000
LeftFoot -7.414740 4.976738 -19.401052
LeftToeBase 10.596955 -0.000000 -0.000000
RightUpLeg -6.258918 -7.562349 0.047860
RightLeg 1.345023 -0.000000 -0.000000
RightFoot -4.992573 -3.439140 -14.914548
RightToeBase 0.295361 -0.000000 -0.000000
3299
root -4.435385 33.106241 -3.544616 9.596818 0.965862 -2.079733
Spine -11.570441 10.534582 -6.891312
Head 16.130810 -14.176219 8.089329
LeftShoulder -17.831945 24.906153 8.100444
LeftArm 22.018342 20.714287 -63.671009
LeftForeArm 5.036262 -0.000000 32.763401
LeftHand -25.701719 -0.000000 -4.973528
LeftHandThumb1 -26.253704 0.000000 33.147579
RightShoulder 317.949464 55.051104 263.113839
RightArm -16.733565 46.220991 16.574030
RightForeArm 62.363019 0.000000 105.553987
RightHand 8.117188 -0.000000 20.405235
RightHandThumb1 -24.326973 -0.000000 -32.862282
LeftUpLeg -3.772653 6.095024 5.152577
LeftLeg -2.437149 -0.000000 0.000000
LeftFoot -7.355769 4.943577 -19.396405
LeftToeBase 10.595031 -0.000000 -0.000000
RightUpLeg -6.232522 -7.594672 0.071017
RightLeg 1.295139 -0.000000 -0.000000
RightFoot -4.943777 -3.465514 -14.861978
RightToeBase 0.236011 -0.000000 -0.000000
3300
root -4.436757 33.108440 -3.533180 9.607389 1.021174 -2.090368
Spine -11.581477 10.518346 -6.861403
Head 16.287829 -14.199081 7.945294
LeftShoulder -17.792842 24.912620 8.066274
LeftArm 21.965213 20.654711 -63.676118
LeftForeArm 4.960627 0.000000 32.683667
LeftHand -25.730017 0.000000 -5.058556
LeftHandThumb1 -26.253704 0.000000 33.147579
RightShoulder 316.332369 55.684317 261.008182
RightArm -17.566617 46.365364 16.185009
RightForeArm 64.390174 -0.000000 106.282993
RightHand 8.689580 -0.000000 21.081633
RightHandThumb1 -24.326973 -0.000000 -32.862282
LeftUpLeg -3.748221 6.066297 5.172644
LeftLeg -2.490162 -0.000000 0.000000
LeftFoot -7.311528 4.935978 -19.401016
LeftToeBase 10.631613 -0.000000 -0.000000
RightUpLeg -6.202300 -7.662316 0.093747
RightLeg 1.259840 -0.000000 -0.000000
RightFoot -4.920243 -3.445016 -14.831906
RightToeBase 0.256638 -0.000000 -0.000000
3301
root -4.437445 33.110169 -3.521448 9.618117 1.055876 -2.103378
Spine -11.605619 10.515096 -6.842702
Head 16.410629 -14.215189 7.831665
LeftShoulder -17.767670 24.912988 8.036202
LeftArm 21.932100 20.627539 -63.672539
LeftForeArm 4.927611 -0.000000 32.550156
LeftHand -25.709400 -0.000000 -5.093143
LeftHandThumb1 -26.253704 0.000000 33.147579
RightShoulder 314.615667 56.306264 258.821875
RightArm -18.383458 46.306278 15.869325
RightForeArm 65.846182 0.000000 107.000041
RightHand 9.229956 0.000000 21.757732
RightHandThumb1 -24.326973 -0.000000 -32.862282
LeftUpLeg -3.716339 6.051082 5.194027
LeftLeg -2.551358 -0.000000 0.000000
LeftFoot -7.273421 4.916808 -19.396629
LeftToeBase 10.676552 -0.000000 -0.000000
RightUpLeg -6.189041 -7.736358 0.119710
RightLeg 1.253593 -0.000000 -0.000000
RightFoot -4.909036 -3.407856 -14.814907
RightToeBase 0.207287 -0.000000 -0.000000
3302
root -4.439616 33.111148 -3.507421 9.623005 1.070667 -2.125809
Spine -11.652424 10.510218 -6.825429
Head 16.538069 -14.216818 7.723413
LeftShoulder -17.722470 24.885391 8.037976
LeftArm 21.830868 20.582104 -63.720214
LeftForeArm 4.918326 -0.000000 32.389991
LeftHand -25.582214 0.000000 -5.172532
LeftHandThumb1 -26.253704 0.000000 33.147579
RightShoulder 313.346134 56.708606 257.265449
RightArm -18.902095 46.331809 15.629477
RightForeArm 66.804907 -0.000000 107.670328
RightHand 9.581753 -0.000000 22.268405
RightHandThumb1 -24.326973 -0.000000 -32.862282
LeftUpLeg -3.668931 6.022854 5.228586
LeftLeg -2.611746 -0.000000 0.000000
LeftFoot -7.255100 4.932307 -19.415269
LeftToeBase 10.640829 -0.000000 -0.000000
RightUpLeg -6.139822 -7.758901 0.144641
RightLeg 1.195577 -0.000000 -0.000000
RightFoot -4.890584 -3.378925 -14.780154
RightToeBase 0.197754 -0.000000 -0.000000
3303
root -4.440131 33.112064 -3.492009 9.625463 1.085317 -2.141402
Spine -11.711857 10.492087 -6.827653
Head 16.640410 -14.219208 7.605866
LeftShoulder -17.687180 24.875573 8.052285
LeftArm 21.765644 20.586361 -63.757255
LeftForeArm 4.886579 -0.000000 32.196289
LeftHand -25.648920 -0.000000 -5.175766
LeftHandThumb1 -26.253704 0.000000 33.147579
RightShoulder 312.254627 57.035071 255.947502
RightArm -19.367955 46.213119 15.461301
RightForeArm 67.240470 -0.000000 108.334401
RightHand 9.857040 -0.000000 22.520675
RightHandThumb1 -24.326973 -0.000000 -32.862282
LeftUpLeg -3.620341 6.013187 5.250096
LeftLeg -2.670327 -0.000000 0.000000
LeftFoot -7.223363 4.933257 -19.418064
LeftToeBase 10.628940 -0.000000 -0.000000
RightUpLeg -6.104624 -7.833240 0.167392
RightLeg 1.171424 -0.000000 -0.000000
RightFoot -4.890151 -3.311415 -14.761756
RightToeBase 0.189131 -0.000000 -0.000000
3304
root -4.440982 33.112277 -3.473798 9.609365 1.068759 -2.163618
Spine -11.769068 10.495362 -6.829887
Head 16.739234 -14.194146 7.543680
LeftShoulder -17.663874 24.851612 8.074049
LeftArm 21.697069 20.627253 -63.793112
LeftForeArm 4.753512 0.000000 31.969542
LeftHand -25.688086 -0.000000 -5.052987
LeftHandThumb1 -26.253704 0.000000 33.147579
RightShoulder 311.378624 57.292901 254.902234
RightArm -19.746266 45.936019 15.366350
RightForeArm 67.619054 -0.000000 108.982012
RightHand 9.950022 0.000000 22.384837
RightHandThumb1 -24.326973 -0.000000 -32.862282
LeftUpLeg -3.539440 6.010118 5.279397
LeftLeg -2.731135 -0.000000 0.000000
LeftFoot -7.219012 4.944074 -19.444382
LeftToeBase 10.658193 -0.000000 -0.000000
RightUpLeg -6.040432 -7.874929 0.187523
RightLeg 1.131957 -0.000000 -0.000000
RightFoot -4.888082 -3.248216 -14.774459
RightToeBase 0.181246 -0.000000 -0.000000
